<svg width="25" height="24" viewBox="0 0 25 24" fill="none" xmlns="http://www.w3.org/2000/svg">
<path d="M15.8333 14H15.0433L14.7633 13.73C15.7433 12.59 16.3333 11.11 16.3333 9.5C16.3333 5.91 13.4233 3 9.83331 3C6.24331 3 3.33331 5.91 3.33331 9.5C3.33331 13.09 6.24331 16 9.83331 16C11.4433 16 12.9233 15.41 14.0633 14.43L14.3333 14.71V15.5L19.3333 20.49L20.8233 19L15.8333 14ZM9.83331 14C7.34331 14 5.33331 11.99 5.33331 9.5C5.33331 7.01 7.34331 5 9.83331 5C12.3233 5 14.3333 7.01 14.3333 9.5C14.3333 11.99 12.3233 14 9.83331 14Z" fill="black"/>
</svg>
